<?xml version="1.0" encoding="UTF-8" standalone="no"?>
<svg
   xmlns:dc="http://purl.org/dc/elements/1.1/"
   xmlns:cc="http://creativecommons.org/ns#"
   xmlns:rdf="http://www.w3.org/1999/02/22-rdf-syntax-ns#"
   xmlns:svg="http://www.w3.org/2000/svg"
   xmlns="http://www.w3.org/2000/svg"
   id="svg3340"
   version="1.1"
   viewBox="0 0 12.7 12.7"
   height="48"
   width="48">
  <defs
     id="defs3334" />
  <metadata
     id="metadata3337">
    <rdf:RDF>
      <cc:Work
         rdf:about="">
        <dc:format>image/svg+xml</dc:format>
        <dc:type
           rdf:resource="http://purl.org/dc/dcmitype/StillImage" />
        <dc:title></dc:title>
      </cc:Work>
    </rdf:RDF>
  </metadata>
  <g
     transform="translate(0,-284.29998)"
     id="layer1">
    <g
       id="g3928"
       style="display:inline;fill:#f2f2f2;fill-opacity:1"
       transform="matrix(0,0.60476008,0.60476014,0,-0.30495763,283.99864)">
      <path
         id="rect4076"
         transform="matrix(0,0.43750128,0.43750132,0,0.49828024,0.50426212)"
         d="M 8.0019531 8 L 8 8.0019531 L 8 39.998047 L 8.0019531 40 L 39.998047 40 L 40 39.998047 L 40 8.0019531 L 39.998047 8 L 8.0019531 8 z M 10.001953 10 L 22.998047 10 L 23 10.001953 L 23 22.998047 L 22.998047 23 L 10.001953 23 L 10 22.998047 L 10 10.001953 L 10.001953 10 z M 25.001953 10 L 37.998047 10 L 38 10.001953 L 38 22.998047 L 37.998047 23 L 25.001953 23 L 25 22.998047 L 25 10.001953 L 25.001953 10 z M 10.001953 25 L 22.998047 25 L 23 25.001953 L 23 37.998047 L 22.998047 38 L 10.001953 38 L 10 37.998047 L 10 25.001953 L 10.001953 25 z M 25.001953 25 L 37.998047 25 C 37.998047 25 38 25.001953 38 25.001953 L 38 37.998047 C 38 37.998047 37.998047 38 37.998047 38 L 25.001953 38 C 25.001953 38 25 37.998047 25 37.998047 L 25 25.001953 C 25 25.001953 25.001953 25 25.001953 25 z "
         style="fill:#f2f2f2;fill-opacity:1;stroke:none;stroke-width:1;stroke-opacity:1" />
      <path
         id="path4090"
         d="m 5.7482961,9.2542877 v -3.062509 h 1.7500053 v 2.625008 H 9.2483066 V 6.1917787 H 9.685808 v 3.062509 H 7.0608 V 6.6292797 H 6.1857974 v 2.625008 z"
         style="fill:#f2f2f2;fill-opacity:1;stroke:none;stroke-width:0.43750131px;stroke-linecap:butt;stroke-linejoin:miter;stroke-opacity:1" />
    </g>
  </g>
</svg>
