<?xml version="1.0" encoding="UTF-8" standalone="no"?>
<svg
   xmlns:dc="http://purl.org/dc/elements/1.1/"
   xmlns:cc="http://creativecommons.org/ns#"
   xmlns:rdf="http://www.w3.org/1999/02/22-rdf-syntax-ns#"
   xmlns:svg="http://www.w3.org/2000/svg"
   xmlns="http://www.w3.org/2000/svg"
   id="svg3340"
   version="1.1"
   viewBox="0 0 12.7 12.7"
   height="48"
   width="48">
  <defs
     id="defs3334" />
  <metadata
     id="metadata3337">
    <rdf:RDF>
      <cc:Work
         rdf:about="">
        <dc:format>image/svg+xml</dc:format>
        <dc:type
           rdf:resource="http://purl.org/dc/dcmitype/StillImage" />
        <dc:title></dc:title>
      </cc:Work>
    </rdf:RDF>
  </metadata>
  <g
     transform="translate(0,-284.29998)"
     id="layer1">
    <g
       id="g3928"
       style="display:inline;fill:#f2f2f2;fill-opacity:1"
       transform="matrix(0,0.60476008,0.60476014,0,-0.30495763,283.99864)">
      <path
         id="rect4766"
         transform="matrix(0,0.43750128,0.43750132,0,0.49828024,0.50426212)"
         d="M 8.0019531 8 C 8.0019531 8 8 8.0019531 8 8.0019531 L 8 39.998047 C 8 39.998047 8.0019531 40 8.0019531 40 L 39.998047 40 C 39.998047 40 40 39.998047 40 39.998047 L 40 8.0019531 C 40 8.0019531 39.998047 8 39.998047 8 L 8.0019531 8 z M 10.001953 10 L 37.998047 10 C 37.998047 10 38 10.001953 38 10.001953 L 38 37.998047 C 38 37.998047 37.998047 38 37.998047 38 L 10.001953 38 C 10.001953 38 10 37.998047 10 37.998047 L 10 10.001953 C 10 10.001953 10.001953 10 10.001953 10 z "
         style="fill:#f2f2f2;fill-opacity:1;stroke:none;stroke-width:1;stroke-opacity:1" />
      <path
         id="path4771"
         d="m 6.6232987,7.0667813 v 0"
         style="fill:#f2f2f2;stroke:#000000;stroke-width:0.43750131px;stroke-linecap:butt;stroke-linejoin:miter;stroke-opacity:1;fill-opacity:1" />
      <path
         id="path4773"
         d="m 6.6232987,7.0667813 v 0 0"
         style="fill:none;stroke:#000000;stroke-width:0.43750131px;stroke-linecap:butt;stroke-linejoin:miter;stroke-opacity:1" />
      <path
         id="path4775"
         d="m 6.6232987,7.0667813 v 0"
         style="fill:#f2f2f2;stroke:#000000;stroke-width:0.43750131px;stroke-linecap:butt;stroke-linejoin:miter;stroke-opacity:1;fill-opacity:1" />
      <path
         id="path4777"
         d="m 6.6232987,7.0667813 v 0"
         style="fill:#f2f2f2;stroke:#000000;stroke-width:0.43750131px;stroke-linecap:butt;stroke-linejoin:miter;stroke-opacity:1;fill-opacity:1" />
      <path
         id="path4779"
         d="m 6.6232987,7.0667813 v 0"
         style="fill:#f2f2f2;stroke:#000000;stroke-width:0.43750131px;stroke-linecap:butt;stroke-linejoin:miter;stroke-opacity:1;fill-opacity:1" />
      <path
         id="path4781"
         d="m 6.6232987,7.0667813 v 0"
         style="fill:#f2f2f2;stroke:#000000;stroke-width:0.43750131px;stroke-linecap:butt;stroke-linejoin:miter;stroke-opacity:1;fill-opacity:1" />
      <path
         id="path6022"
         d="M 6.6232987,7.5042826 V 14.504303 H 10.560811 V 8.3792852 h 3.937511 v 6.1250178 h 0.875003 V 7.5042826 H 9.685808 V 13.629301 H 7.4983014 V 7.5042826 Z"
         style="fill:#f2f2f2;stroke:none;stroke-width:0.43750131px;stroke-linecap:butt;stroke-linejoin:miter;stroke-opacity:1;fill-opacity:1" />
    </g>
  </g>
</svg>
