<?xml version="1.0" encoding="UTF-8" standalone="no"?>
<svg
   xmlns:dc="http://purl.org/dc/elements/1.1/"
   xmlns:cc="http://creativecommons.org/ns#"
   xmlns:rdf="http://www.w3.org/1999/02/22-rdf-syntax-ns#"
   xmlns:svg="http://www.w3.org/2000/svg"
   xmlns="http://www.w3.org/2000/svg"
   id="svg3340"
   version="1.1"
   viewBox="0 0 12.7 12.7"
   height="48"
   width="48">
  <defs
     id="defs3334" />
  <metadata
     id="metadata3337">
    <rdf:RDF>
      <cc:Work
         rdf:about="">
        <dc:format>image/svg+xml</dc:format>
        <dc:type
           rdf:resource="http://purl.org/dc/dcmitype/StillImage" />
        <dc:title></dc:title>
      </cc:Work>
    </rdf:RDF>
  </metadata>
  <g
     transform="translate(0,-284.29998)"
     id="layer1">
    <g
       id="g3928"
       style="display:inline;fill:#f2f2f2;fill-opacity:1"
       transform="matrix(0,0.60476008,0.60476014,0,-0.30495763,283.99864)">
      <path
         id="path4773"
         d="m 6.6232987,7.0667813 v 0 0"
         style="fill:none;stroke:#000000;stroke-width:0.43750131px;stroke-linecap:butt;stroke-linejoin:miter;stroke-opacity:1" />
      <path
         id="path7708"
         d="M 5.7482967,11.004292 3.9982914,9.2542875 v 3.5000105 z"
         style="fill:#f2f2f2;fill-opacity:1;stroke:none;stroke-width:0.87500256" />
      <path
         id="path7704"
         transform="matrix(0,0.43750128,0.43750132,0,0.49828024,0.50426212)"
         d="M 14 14 L 14 34 L 34 34 L 34 14 L 14 14 z M 16 16 L 32 16 L 32 16.001953 L 32 31.998047 L 32 32 L 16.001953 32 L 16 32 L 16 31.998047 L 16 16.001953 L 16 16 z "
         style="fill:#f2f2f2;fill-opacity:1;stroke:none;stroke-width:1.99999988" />
      <path
         id="path7124"
         d="m 17.998334,9.2542875 -1.750006,1.7500045 1.750006,1.750006 z"
         style="fill:#f2f2f2;fill-opacity:1;stroke:none;stroke-width:0.87500256" />
      <rect
         ry="0.00080634118"
         transform="matrix(0,1,1,0,0,0)"
         y="10.56081"
         x="9.2542877"
         height="0.87500262"
         width="3.5000103"
         id="rect7780"
         style="fill:#f2f2f2;fill-opacity:1;stroke:none;stroke-width:0.43750131;stroke-opacity:1" />
    </g>
  </g>
</svg>
