<?xml version="1.0" encoding="UTF-8" standalone="no"?>
<svg
   xmlns:dc="http://purl.org/dc/elements/1.1/"
   xmlns:cc="http://creativecommons.org/ns#"
   xmlns:rdf="http://www.w3.org/1999/02/22-rdf-syntax-ns#"
   xmlns:svg="http://www.w3.org/2000/svg"
   xmlns="http://www.w3.org/2000/svg"
   id="svg3340"
   version="1.1"
   viewBox="0 0 12.7 12.7"
   height="48"
   width="48">
  <defs
     id="defs3334" />
  <metadata
     id="metadata3337">
    <rdf:RDF>
      <cc:Work
         rdf:about="">
        <dc:format>image/svg+xml</dc:format>
        <dc:type
           rdf:resource="http://purl.org/dc/dcmitype/StillImage" />
        <dc:title></dc:title>
      </cc:Work>
    </rdf:RDF>
  </metadata>
  <g
     transform="translate(0,-284.29998)"
     id="layer1">
    <g
       id="g3928"
       style="display:inline;fill:#f2f2f2;fill-opacity:1"
       transform="matrix(0,0.60476008,0.60476014,0,-0.30495763,283.99864)">
      <path
         id="path4773"
         d="m 6.6232987,7.0667813 v 0 0"
         style="fill:none;stroke:#000000;stroke-width:0.43750131px;stroke-linecap:butt;stroke-linejoin:miter;stroke-opacity:1" />
      <path
         id="path7708"
         d="M 3.9982914,11.004292 5.7482967,9.2542875 v 3.5000105 z"
         style="fill:#4d4d4d;fill-opacity:1;stroke:none;stroke-width:0.87500256" />
      <path
         id="path7704"
         transform="matrix(0,0.43750128,0.43750132,0,0.49828024,0.50426212)"
         d="M 14 14 L 14 34 L 34 34 L 34 14 L 14 14 z M 16 16 L 32 16 L 32 16.001953 L 32 31.998047 L 32 32 L 16.001953 32 L 16 32 L 16 31.998047 L 16 16.001953 L 16 16 z "
         style="fill:#4d4d4d;fill-opacity:1;stroke:none;stroke-width:1.99999988" />
      <path
         id="path7700"
         d="M 9.2483072,5.7542774 10.998312,4.0042723 12.748318,5.7542774 Z"
         style="fill:#4d4d4d;fill-opacity:1;stroke:none;stroke-width:0.87500256" />
      <path
         id="path7698"
         d="m 9.2483072,16.254307 h 3.5000108 l -1.750006,1.750006 z"
         style="fill:#4d4d4d;fill-opacity:1;stroke:none;stroke-width:0.87500256" />
      <path
         id="path7124"
         d="m 16.248328,9.2542875 1.750006,1.7500045 -1.750006,1.750006 z"
         style="fill:#4d4d4d;fill-opacity:1;stroke:none;stroke-width:0.87500256" />
    </g>
  </g>
</svg>
